<?xml version="1.0" standalone="no"?><!DOCTYPE svg PUBLIC "-//W3C//DTD SVG 1.1//EN" "http://www.w3.org/Graphics/SVG/1.1/DTD/svg11.dtd"><svg t="1608192029980" class="icon" viewBox="0 0 1024 1024" version="1.1" xmlns="http://www.w3.org/2000/svg" p-id="3159" xmlns:xlink="http://www.w3.org/1999/xlink" width="200" height="200"><defs><style type="text/css"></style></defs><path d="M816.839869 870.624723H196.836758c-47.282851 0-78.971068-37.693228-78.971069-84.966295V239.852119c0-47.267198 31.692131-86.480755 78.971069-86.480756h228.906525a24.706831 24.706831 0 0 1 24.021997 18.911184l25.366227 104.756023H816.849652c47.273068 0 92.470112 39.207688 92.470112 86.478798V785.660385c0 47.273068-45.199001 84.966295-92.479895 84.966295zM205.037148 212.071365c-19.298604 0-28.473414 16.436-28.473414 35.716994v529.873172c0 19.3123 9.17481 34.261234 28.473414 34.261234h603.98388c19.286864 0 41.496988-14.948934 41.496988-34.261234V371.625795c0-19.284907-22.210124-35.720907-41.506771-35.720907H446.849847a23.845897 23.845897 0 0 1-23.192371-18.245917l-24.473987-105.587606H205.039105z m626.851444 6.26916H536.187336c-17.4339 0-29.350001-14.39911-29.350001-29.350001 0-15.4381 12.495274-29.350001 29.350001-29.35h299.939396c16.878207 0 29.338261 13.696667 29.338261 29.35 0 15.410707-12.542234 29.350001-29.338261 29.350001h-4.23814z" fill="#525252" p-id="3160"></path></svg>