<?xml version="1.0" encoding="utf-8"?>
<!-- Svg Vector Icons : http://www.onlinewebfonts.com/icon -->
<!DOCTYPE svg PUBLIC "-//W3C//DTD SVG 1.1//EN" "http://www.w3.org/Graphics/SVG/1.1/DTD/svg11.dtd">
<svg version="1.1" xmlns="http://www.w3.org/2000/svg" xmlns:xlink="http://www.w3.org/1999/xlink" x="0px" y="0px" viewBox="0 0 1000 1000" enable-background="new 0 0 1000 1000" xml:space="preserve">
<metadata> Svg Vector Icons : http://www.onlinewebfonts.com/icon </metadata>
<g><path d="M990,200.3c0-53.9-44.6-97.6-98.5-97.6h-201c-13.5,0-24.5,11-24.5,24.5s11,24.5,24.5,24.5h201c13,0,25.4,4.9,34.8,14.2c9.3,9.3,14.7,21.3,14.7,34.4V575l0,0v318v0.1c0,12.9-5.4,25.4-14.7,34.7c-9.3,9.3-21.8,14.7-34.8,14.7h-783c-13,0-25.4-5.4-34.8-14.7C64.4,918.6,59,906,59,893.1V893V575l0,0V200.3c0-13,5.4-25,14.7-34.4c9.3-9.3,21.8-14.2,34.8-14.2h203.3c13.5,0,24.5-11,24.5-24.5s-11-24.5-24.5-24.5H108.5c-53.9,0-98.5,43.6-98.5,97.6V893c0,0.1,0,0.2,0,0.3c0.2,53.7,43.7,98.1,97.6,98.1h0.9h783h0.9c53.8,0,97.3-44.4,97.6-98.3c0-0.1,0-0.1,0-0.2V200.3z"/><path d="M323.9,494.7l158.9,164.6c4.5,4.6,10.6,7.2,16.9,7.2l0,0c6.3,0,12.4-2.6,16.9-7.2l158.4-164.6c9-9.4,8.7-24.2-0.6-33.2c-9.4-9-24.2-8.7-33.2,0.6L523.1,584.9v-553c0-12.9-10.6-23.5-23.5-23.5c-12.9,0-23.5,10.6-23.5,23.5V585L357.7,462.2c-9-9.3-23.8-9.6-33.2-0.6C315.2,470.6,315,485.5,323.9,494.7z"/><path d="M287.4,782c0,12.9,10.6,23.5,23.5,23.5h370.5c12.9,0,23.5-10.6,23.5-23.5c0-12.9-10.6-23.5-23.5-23.5H310.9C298,758.5,287.4,769.1,287.4,782z"/></g>
</svg>